<svg width="1000" height="1000" viewBox="0 0 1000 1000" fill="none" xmlns="http://www.w3.org/2000/svg">
<g clip-path="url(#clip0_44_226)">
<path d="M730 267.5H760V270H762.5V272.5H765V275H770V282.5H772.5V295H775V305H777.5V307.5H780V310H782.5V315H785V317.5H787.5V320H790V345H787.5V347.5H785V407.5H782.5V420H780V422.5H775V427.5H772.5V430H767.5V432.5H765V437.5H762.5V440H760V447.5H757.5V450H755V452.5H752.5V457.5H750V460H755V457.5H757.5V462.5H755V480H757.5V487.5H765V490H762.5V492.5H770V495H767.5V497.5H765V502.5H772.5V505H775V510H780V520H785V522.5H787.5V530H795V540H800V542.5H807.5V552.5H812.5V557.5H815V560H817.5V562.5H815V570H812.5V572.5H817.5V570H825V577.5H822.5V582.5H825V585H827.5V587.5H830V607.5H835V617.5H832.5V622.5H835V625H840V627.5H837.5V632.5H830V630H822.5V632.5H827.5V635H830V637.5H825V635H815V637.5H810V640H807.5V647.5H805V650H800V652.5H797.5V645H802.5V642.5H800V640H795V637.5H792.5V635H795V632.5H797.5V630H790V632.5H780V617.5H765V607.5H762.5V602.5H755V605H750V597.5H745V595H737.5V597.5H732.5V590H725V585H722.5V582.5H715V580H712.5V577.5H715V572.5H712.5V575H705V572.5H707.5V565H700V562.5H702.5V560H695V555H687.5V550H690V547.5H682.5V542.5H677.5V537.5H667.5V530H662.5V525H657.5V527.5H652.5V520H647.5V515H640V512.5H637.5V510H635V507.5H630V502.5H625V500H620V497.5H617.5V500H612.5V497.5H610V492.5H605V490H600V492.5H597.5V490H592.5V485H590V487.5H587.5V490H585V485H580V482.5H577.5V485H572.5V482.5H570V485H565V482.5H562.5V480H557.5V482.5H555V485H552.5V487.5H550V490H547.5V495H545V497.5H542.5V500H540V502.5H537.5V520H542.5V525H545V532.5H542.5V535H545V540H542.5V545H545V547.5H542.5V550H540V552.5H542.5V557.5H540V565H537.5V570H540V572.5H537.5V575H535V577.5H537.5V587.5H535V590H540V587.5H542.5V592.5H540V597.5H542.5V595H545V592.5H547.5V597.5H550V602.5H547.5V605H552.5V610H550V615H552.5V617.5H555V620H557.5V622.5H560V625H562.5V630H557.5V632.5H560V635H562.5V640H565V645H567.5V647.5H570V650H567.5V652.5H565V655H570V652.5H575V657.5H585V665H587.5V662.5H592.5V660H595V667.5H600V665H602.5V672.5H605V675H607.5V677.5H605V680H607.5V682.5H610V687.5H607.5V692.5H612.5V690H617.5V692.5H620V697.5H622.5V700H625V705H632.5V702.5H637.5V697.5H642.5V695H652.5V702.5H657.5V700H665V705H660V715H672.5V720H670V725H687.5V722.5H697.5V730H700V732.5H702.5V735H707.5V737.5H710V740H712.5V742.5H717.5V737.5H722.5V745H720V747.5H717.5V752.5H712.5V757.5H707.5V762.5H702.5V767.5H695V772.5H685V775H677.5V782.5H672.5V775H667.5V767.5H662.5V772.5H660V770H655V777.5H652.5V775H647.5V780H642.5V782.5H640V785H635V787.5H632.5V790H625V792.5H620V797.5H612.5V800H607.5V805H602.5V810H600V815H597.5V820H592.5V825H590V822.5H587.5V820H585V815H587.5V810H590V805H587.5V802.5H582.5V805H575V807.5H572.5V812.5H567.5V815H565V822.5H562.5V827.5H560V832.5H555V827.5H552.5V825H557.5V820H560V812.5H562.5V807.5H565V802.5H567.5V797.5H562.5V800H557.5V802.5H552.5V807.5H550V812.5H547.5V817.5H545V822.5H540V825H535V820H537.5V812.5H540V807.5H542.5V802.5H540V800H535V802.5H532.5V805H530V807.5H527.5V812.5H525V817.5H522.5V822.5H517.5V825H515V820H517.5V815H515V812.5H517.5V807.5H520V802.5H515V805H512.5V807.5H510V810H507.5V815H505V820H502.5V825H500V827.5H495V820H497.5V810H492.5V812.5H490V817.5H487.5V822.5H482.5V825H480V830H475V835H472.5V827.5H475V822.5H477.5V817.5H480V812.5H482.5V807.5H477.5V810H475V815H472.5V820H470V822.5H465V817.5H467.5V810H470V807.5H472.5V802.5H470V800H465V805H462.5V810H460V812.5H457.5V817.5H455V820H452.5V810H455V805H457.5V802.5H460V797.5H457.5V800H452.5V805H450V807.5H447.5V812.5H445V817.5H442.5V822.5H440V825H437.5V827.5H435V830H432.5V835H427.5V837.5H422.5V835H425V832.5H427.5V827.5H430V825H432.5V822.5H435V820H437.5V810H435V812.5H430V815H427.5V810H430V805H432.5V800H435V795H430V797.5H427.5V790H425V792.5H422.5V795H420V797.5H417.5V800H415V802.5H412.5V805H410V800H412.5V795H405V792.5H402.5V790H400V792.5H395V787.5H392.5V790H390V785H387.5V787.5H380V785H382.5V782.5H377.5V777.5H375V780H372.5V775H370V780H355V777.5H360V770H357.5V772.5H355V770H347.5V775H350V777.5H347.5V780H345V775H342.5V777.5H340V772.5H337.5V780H335V775H332.5V770H327.5V767.5H322.5V765H315V762.5H312.5V760H305V757.5H302.5V755H300V747.5H302.5V742.5H305V745H307.5V742.5H312.5V737.5H315V732.5H312.5V730H315V727.5H317.5V725H320V722.5H327.5V720H332.5V717.5H335V720H337.5V717.5H340V715H342.5V712.5H345V710H350V707.5H352.5V705H355V702.5H360V700H362.5V697.5H365V695H375V692.5H380V690H382.5V687.5H385V685H387.5V680H385V682.5H382.5V685H377.5V682.5H380V680H382.5V675H385V672.5H387.5V667.5H390V662.5H395V665H397.5V662.5H402.5V657.5H405V655H407.5V647.5H410V642.5H415V640H417.5V637.5H422.5V635H425V632.5H427.5V625H430V627.5H432.5V622.5H435V617.5H437.5V615H435V610H437.5V607.5H435V600H432.5V597.5H435V592.5H432.5V595H430V590H432.5V587.5H435V585H437.5V577.5H440V572.5H437.5V567.5H440V562.5H442.5V565H445V560H442.5V557.5H447.5V552.5H450V550H447.5V547.5H450V545H445V537.5H447.5V532.5H445V535H442.5V530H445V525H442.5V515H445V512.5H442.5V510H445V507.5H442.5V502.5H440V497.5H437.5V495H440V492.5H442.5V490H440V485H437.5V482.5H427.5V485H425V482.5H422.5V485H420V482.5H412.5V480H410V482.5H402.5V485H400V487.5H395V490H392.5V487.5H390V490H380V492.5H370V495H367.5V500H365V505H362.5V507.5H360V510H342.5V512.5H340V515H337.5V517.5H332.5V520H330V522.5H325V525H322.5V527.5H320V530H317.5V532.5H315V540H312.5V542.5H310V545H307.5V552.5H305V557.5H300V560H292.5V565H287.5V567.5H285V570H282.5V572.5H277.5V575H270V577.5H267.5V580H265V585H260V590H257.5V592.5H260V595H250V600H247.5V602.5H242.5V610H240V612.5H235V615H232.5V620H230V622.5H220V625H215V630H207.5V632.5H200V635H197.5V632.5H180V630H177.5V627.5H170V615H160V602.5H157.5V600H155V595H152.5V582.5H155V580H157.5V577.5H160V575H162.5V572.5H165V570H172.5V567.5H182.5V560H185V557.5H187.5V555H190V552.5H192.5V550H195V542.5H197.5V532.5H200V530H202.5V527.5H200V520H202.5V515H205V512.5H207.5V507.5H210V505H212.5V502.5H215V500H220V497.5H230V490H232.5V487.5H237.5V482.5H240V480H242.5V470H240V467.5H237.5V465H235V462.5H232.5V460H230V455H225V450H222.5V445H220V442.5H217.5V400H215V397.5H212.5V392.5H210V387.5H212.5V385H210V382.5H200V355H205V352.5H207.5V347.5H205V345H210V335H212.5V317.5H215V312.5H212.5V310H207.5V297.5H210V292.5H212.5V290H215V282.5H217.5V280H220V277.5H222.5V272.5H227.5V270H262.5V272.5H265V275H270V280H287.5V277.5H297.5V280H300V282.5H305V287.5H310V290H322.5V295H332.5V297.5H337.5V302.5H340V305H345V307.5H350V312.5H352.5V315H360V317.5H365V322.5H367.5V325H370V330H375V332.5H380V335H382.5V345H385V347.5H390V352.5H397.5V350H407.5V347.5H417.5V345H427.5V342.5H430V340H447.5V337.5H450V335H452.5V337.5H462.5V335H465V337.5H470V335H477.5V337.5H480V342.5H477.5V357.5H475V360H472.5V365H470V375H472.5V377.5H475V382.5H472.5V385H475V390H472.5V395H475V397.5H477.5V400H475V402.5H477.5V410H480V412.5H477.5V415H475V420H477.5V425H475V437.5H472.5V452.5H475V457.5H472.5V465H470V467.5H472.5V470H475V472.5H472.5V477.5H475V480H472.5V482.5H477.5V485H475V487.5H472.5V492.5H470V500H465V502.5H462.5V505H465V517.5H467.5V520H465V525H467.5V527.5H472.5V532.5H475V537.5H477.5V542.5H470V545H477.5V555H475V560H472.5V562.5H470V560H467.5V565H465V575H462.5V582.5H460V587.5H462.5V590H465V587.5H467.5V585H470V590H467.5V592.5H470V600H467.5V605H470V602.5H472.5V607.5H475V612.5H477.5V617.5H475V625H472.5V627.5H475V632.5H477.5V625H480V630H482.5V632.5H485V627.5H487.5V630H490V627.5H495V630H500V632.5H505V630H517.5V627.5H515V622.5H512.5V620H517.5V617.5H520V612.5H525V605H522.5V607.5H520V602.5H522.5V597.5H520V600H517.5V592.5H515V585H517.5V580H520V577.5H517.5V572.5H520V567.5H522.5V565H525V562.5H522.5V560H520V557.5H517.5V560H512.5V555H515V552.5H517.5V550H520V547.5H522.5V545H525V540H522.5V537.5H525V530H520V527.5H517.5V520H515V517.5H512.5V515H515V502.5H517.5V500H522.5V497.5H520V495H522.5V482.5H525V470H522.5V462.5H520V460H517.5V452.5H515V447.5H512.5V445H510V442.5H512.5V432.5H515V425H517.5V420H520V417.5H522.5V407.5H520V402.5H522.5V400H520V397.5H517.5V387.5H515V385H512.5V362.5H510V355H512.5V345H515V335H520V332.5H522.5V330H525V332.5H545V335H547.5V332.5H555V335H562.5V337.5H567.5V340H570V337.5H575V340H577.5V342.5H590V345H595V347.5H597.5V345H600V342.5H602.5V340H605V337.5H607.5V335H610V332.5H612.5V330H615V327.5H620V322.5H622.5V320H625V317.5H627.5V312.5H635V310H640V302.5H642.5V300H645V297.5H647.5V295H652.5V292.5H657.5V290H662.5V287.5H672.5V285H675V282.5H682.5V280H697.5V275H702.5V272.5H722.5V270H730V267.5ZM245 307.5V337.5H240V345H235V350H232.5V355H235V357.5H232.5V375H235V390H240V392.5H242.5V395H245V400H247.5V410H250V417.5H255V427.5H260V432.5H265V435H262.5V440H267.5V437.5H270V435H272.5V432.5H280V430H287.5V427.5H290V425H297.5V422.5H300V420H302.5V410H307.5V407.5H310V405H312.5V402.5H317.5V400H320V397.5H322.5V395H332.5V390H337.5V387.5H340V375H342.5V370H347.5V357.5H350V355H347.5V352.5H345V350H342.5V345H340V342.5H337.5V340H335V337.5H327.5V335H325V330H320V327.5H317.5V325H310V322.5H307.5V320H302.5V317.5H300V315H297.5V312.5H287.5V310H265V307.5H245ZM730 307.5V310H720V312.5H707.5V315H700V320H687.5V322.5H685V325H677.5V327.5H675V330H672.5V332.5H670V335H665V337.5H662.5V340H660V342.5H657.5V345H650V347.5H645V350H640V355H637.5V372.5H645V375H650V380H655V382.5H657.5V385H662.5V387.5H665V392.5H670V395H675V397.5H680V400H685V402.5H692.5V405H695V407.5H700V412.5H702.5V415H705V420H702.5V422.5H705V427.5H710V430H720V432.5H722.5V430H727.5V425H730V422.5H732.5V420H735V417.5H737.5V415H740V412.5H745V410H750V385H747.5V377.5H745V355H747.5V347.5H750V317.5H747.5V307.5H730ZM480 647.5V650H477.5V652.5H472.5V650H467.5V652.5H465V655H460V652.5H462.5V650H457.5V652.5H455V657.5H452.5V660H450V665H447.5V670H445V672.5H442.5V675H440V680H437.5V685H440V690H437.5V692.5H440V697.5H442.5V710H437.5V712.5H435V720H432.5V725H430V727.5H427.5V730H425V732.5H430V737.5H435V732.5H440V735H442.5V742.5H445V740H447.5V737.5H450V742.5H447.5V747.5H445V752.5H447.5V750H450V747.5H452.5V742.5H455V750H452.5V755H457.5V752.5H460V750H462.5V752.5H465V755H462.5V760H467.5V762.5H465V767.5H470V765H472.5V770H477.5V767.5H480V777.5H482.5V780H490V777.5H497.5V775H500V772.5H505V775H512.5V772.5H517.5V770H522.5V765H527.5V760H530V757.5H532.5V755H535V750H537.5V745H540V740H542.5V737.5H545V732.5H547.5V730H550V727.5H552.5V725H555V720H560V715H557.5V710H562.5V705H560V702.5H565V697.5H562.5V692.5H560V685H555V682.5H557.5V677.5H552.5V680H550V672.5H540V670H537.5V667.5H532.5V662.5H527.5V665H522.5V660H517.5V662.5H512.5V660H515V655H512.5V657.5H510V660H505V657.5H507.5V652.5H502.5V655H500V652.5H492.5V655H490V650H482.5V647.5H480Z" fill="#F4F4F3"/>
<path d="M220 270H227.5V272.5H222.5V277.5H220V280H217.5V282.5H215V290H212.5V292.5H210V297.5H207.5V310H212.5V312.5H215V317.5H212.5V335H210V345H205V347.5H207.5V352.5H205V355H200V382.5H210V385H212.5V387.5H210V392.5H212.5V397.5H215V400H217.5V442.5H220V445H222.5V450H225V455H230V460H232.5V462.5H235V465H237.5V467.5H240V470H242.5V480H240V482.5H237.5V487.5H232.5V490H230V497.5H220V500H217.5V495H222.5V492.5H225V490H227.5V487.5H230V485H235V475H237.5V470H235V467.5H232.5V465H230V462.5H227.5V460H222.5V452.5H220V450H217.5V445H212.5V440H210V435H207.5V417.5H210V405H207.5V395H205V390H195V387.5H192.5V385H195V347.5H202.5V317.5H200V312.5H202.5V292.5H205V290H210V285H212.5V277.5H215V275H217.5V272.5H220V270Z" fill="#71706F"/>
<path d="M375 560H382.5V565H385V570H390V582.5H392.5V585H390V587.5H387.5V595H385V600H382.5V602.5H380V600H377.5V602.5H375V600H370V592.5H362.5V595H360V592.5H350V590H347.5V587.5H345V580H347.5V577.5H350V575H352.5V572.5H357.5V567.5H360V565H365V562.5H367.5V565H375V560Z" fill="#E3E0E2"/>
<path d="M605 567.5H610V570H612.5V567.5H617.5V572.5H615V575H620V572.5H622.5V575H627.5V572.5H632.5V577.5H635V580H637.5V585H635V590H637.5V592.5H635V595H632.5V600H627.5V602.5H622.5V595H620V597.5H617.5V600H615V605H612.5V610H610V607.5H607.5V605H610V597.5H607.5V600H602.5V602.5H600V595H595V592.5H592.5V590H590V587.5H592.5V585H595V582.5H590V577.5H595V575H600V570H605V567.5Z" fill="#E5E3DF"/>
<path d="M562.5 797.5H567.5V802.5H565V807.5H562.5V812.5H560V820H557.5V825H552.5V827.5H555V832.5H560V835H555V840H547.5V845H540V850H535V852.5H527.5V855H522.5V850H527.5V845H535V840H527.5V842.5H520V845H517.5V847.5H515V837.5H520V832.5H525V827.5H530V822.5H532.5V817.5H535V810H537.5V807.5H535V805H532.5V802.5H535V800H540V802.5H542.5V807.5H540V812.5H537.5V820H535V825H540V822.5H545V817.5H547.5V812.5H550V807.5H552.5V802.5H557.5V800H562.5V797.5Z" fill="#707071"/>
<path d="M537.5 672.5H550V680H552.5V677.5H557.5V682.5H555V685H560V692.5H562.5V697.5H565V702.5H560V705H562.5V710H557.5V715H560V720H555V725H552.5V727.5H550V730H547.5V732.5H545V737.5H542.5V740H540V745H537.5V750H535V755H532.5V757.5H530V760H527.5V765H522.5V770H517.5V772.5H512.5V775H505V772.5H502.5V767.5H510V765H512.5V762.5H515V760H517.5V755H522.5V752.5H525V745H527.5V742.5H530V740H532.5V737.5H535V730H537.5V727.5H540V725H542.5V722.5H547.5V717.5H550V710H555V705H552.5V700H557.5V695H555V690H557.5V687.5H552.5V682.5H550V685H547.5V675H545V677.5H540V675H537.5V672.5Z" fill="#AAA9AA"/>
<path d="M472.5 457.5H477.5V462.5H480V465H482.5V470H480V485H482.5V490H480V487.5H477.5V492.5H475V495H477.5V500H475V505H472.5V510H475V512.5H472.5V515H475V520H477.5V525H475V527.5H477.5V530H482.5V527.5H485V532.5H482.5V535H480V537.5H485V542.5H487.5V545H485V547.5H482.5V560H480V567.5H477.5V565H475V567.5H472.5V565H470V572.5H467.5V577.5H465V580H467.5V587.5H465V590H462.5V587.5H460V582.5H462.5V575H465V565H467.5V560H470V562.5H472.5V560H475V555H477.5V545H470V542.5H477.5V537.5H475V532.5H472.5V527.5H467.5V525H465V520H467.5V517.5H465V505H462.5V502.5H465V500H470V492.5H472.5V487.5H475V485H477.5V482.5H472.5V480H475V477.5H472.5V472.5H475V470H472.5V467.5H470V465H472.5V457.5Z" fill="#9C9C9C"/>
<path d="M632.5 787.5H640V795H635V800H632.5V792.5H627.5V797.5H622.5V800H617.5V805H612.5V810H607.5V812.5H602.5V817.5H600V822.5H595V827.5H590V832.5H585V837.5H580V840H572.5V845H565V840H567.5V837.5H572.5V832.5H577.5V825H580V820H575V822.5H570V825H565V830H560V827.5H562.5V822.5H565V815H567.5V812.5H572.5V807.5H575V805H582.5V802.5H587.5V805H590V810H587.5V815H585V820H587.5V822.5H590V825H592.5V820H597.5V815H600V810H602.5V805H607.5V800H612.5V797.5H620V792.5H625V790H632.5V787.5Z" fill="#6D6C6C"/>
<path d="M260 585H265V587.5H262.5V600H260V602.5H255V605H252.5V607.5H247.5V610H245V615H242.5V617.5H240V620H237.5V622.5H235V625H232.5V627.5H230V630H225V632.5H222.5V635H217.5V637.5H207.5V640H202.5V642.5H195V645H192.5V640H190V637.5H187.5V640H185V637.5H182.5V640H177.5V637.5H175V632.5H170V630H167.5V622.5H165V620H162.5V617.5H160V615H170V627.5H177.5V630H180V632.5H197.5V635H200V632.5H207.5V630H215V625H220V622.5H230V620H232.5V615H235V612.5H240V610H242.5V602.5H247.5V600H250V595H260V592.5H257.5V590H260V585Z" fill="#787876"/>
<path d="M470 565H472.5V567.5H475V570H477.5V572.5H480V577.5H477.5V582.5H480V585H477.5V587.5H482.5V602.5H485V610H487.5V612.5H485V617.5H487.5V615H490V612.5H492.5V617.5H495V615H497.5V612.5H502.5V615H500V617.5H505V612.5H510V607.5H515V605H517.5V610H515V612.5H512.5V617.5H510V620H507.5V622.5H505V625H502.5V620H500V622.5H495V620H490V622.5H487.5V625H485V622.5H480V625H477.5V632.5H475V627.5H472.5V625H475V617.5H477.5V612.5H475V607.5H472.5V602.5H470V605H467.5V600H470V592.5H467.5V590H470V585H467.5V580H465V577.5H467.5V572.5H470V565Z" fill="#828282"/>
<path d="M662.5 767.5H667.5V775H672.5V782.5H677.5V775H685V772.5H695V775H687.5V780H680V785H672.5V790H667.5V795H647.5V797.5H645V800H642.5V802.5H637.5V807.5H632.5V805H630V800H635V795H640V787.5H635V785H640V782.5H642.5V780H647.5V775H652.5V777.5H655V770H660V772.5H662.5V767.5Z" fill="#A29F9B"/>
<path d="M817.5 560H820V565H817.5V567.5H825V565H830V567.5H827.5V570H830V572.5H832.5V587.5H837.5V590H840V592.5H835V597.5H832.5V602.5H840V600H845V617.5H842.5V630H840V635H832.5V640H827.5V642.5H820V647.5H817.5V650H815V652.5H812.5V655H807.5V657.5H805V652.5H810V637.5H815V635H825V637.5H830V635H827.5V632.5H822.5V630H830V632.5H837.5V627.5H840V625H835V622.5H832.5V617.5H835V607.5H830V587.5H827.5V585H825V582.5H822.5V577.5H825V570H817.5V572.5H812.5V570H815V562.5H817.5V560Z" fill="#82877B"/>
<path d="M682.5 702.5H687.5V710H682.5V715H677.5V720H695V717.5H700V715H707.5V717.5H710V722.5H707.5V727.5H710V730H712.5V732.5H727.5V735H730V740H725V747.5H722.5V752.5H720V757.5H717.5V760H715V762.5H712.5V765H710V767.5H707.5V770H697.5V772.5H695V767.5H702.5V762.5H707.5V757.5H712.5V752.5H717.5V747.5H720V745H722.5V737.5H717.5V742.5H712.5V740H710V737.5H707.5V735H702.5V732.5H700V730H697.5V722.5H687.5V725H670V720H672.5V715H667.5V710H675V707.5H680V705H682.5V702.5Z" fill="#626463"/>
<path d="M555 550H560V555H562.5V557.5H560V560H555V565H552.5V570H550V577.5H547.5V580H550V585H547.5V587.5H550V592.5H555V595H552.5V600H557.5V605H555V607.5H560V602.5H562.5V610H560V612.5H565V617.5H562.5V620H565V622.5H570V625H567.5V627.5H565V630H567.5V635H572.5V632.5H575V637.5H570V642.5H575V647.5H580V652.5H570V655H565V652.5H567.5V650H570V647.5H567.5V645H565V640H562.5V635H560V632.5H557.5V630H562.5V625H560V622.5H557.5V620H555V617.5H552.5V615H550V610H552.5V605H547.5V602.5H550V597.5H547.5V592.5H545V595H542.5V597.5H540V592.5H542.5V587.5H540V582.5H542.5V580H545V577.5H542.5V575H547.5V570H545V565H547.5V567.5H550V562.5H547.5V560H545V557.5H550V555H555V550Z" fill="#9F9D9C"/>
<path d="M557.5 480H562.5V482.5H565V485H570V482.5H572.5V485H577.5V482.5H580V485H585V490H587.5V487.5H590V485H592.5V490H597.5V495H595V497.5H590V500H587.5V495H582.5V492.5H580V495H575V492.5H572.5V490H570V495H567.5V492.5H565V490H560V492.5H562.5V495H560V497.5H555V502.5H552.5V507.5H550V510H552.5V512.5H550V515H547.5V520H550V525H552.5V530H555V527.5H557.5V535H560V542.5H557.5V547.5H555V542.5H552.5V537.5H550V540H547.5V535H550V530H547.5V522.5H545V517.5H542.5V512.5H540V510H542.5V507.5H545V500H547.5V490H550V487.5H552.5V485H555V482.5H557.5V480Z" fill="#878686"/>
<path d="M320 712.5H325V715H330V717.5H332.5V720H327.5V722.5H320V725H317.5V727.5H315V730H312.5V732.5H315V737.5H312.5V742.5H307.5V745H305V742.5H302.5V747.5H300V755H302.5V757.5H305V760H312.5V762.5H315V765H322.5V767.5H325V770H322.5V772.5H320V775H317.5V770H312.5V767.5H307.5V765H302.5V767.5H300V765H295V760H297.5V757.5H295V740H292.5V735H295V730H300V727.5H302.5V722.5H305V720H307.5V717.5H310V722.5H312.5V720H315V717.5H317.5V715H320V712.5Z" fill="#B3B7B7"/>
<path d="M517.5 557.5H520V560H522.5V562.5H525V565H522.5V567.5H520V572.5H517.5V577.5H520V580H517.5V585H515V592.5H517.5V600H520V597.5H522.5V602.5H520V607.5H522.5V605H525V612.5H520V617.5H517.5V620H512.5V622.5H515V627.5H517.5V630H505V632.5H500V630H495V627.5H490V630H487.5V627.5H485V632.5H482.5V630H480V622.5H485V625H487.5V622.5H490V620H495V622.5H500V620H502.5V625H505V622.5H507.5V620H510V617.5H512.5V612.5H515V610H517.5V605H515V607.5H512.5V602.5H515V597.5H512.5V600H510V592.5H507.5V587.5H505V582.5H510V580H507.5V577.5H510V572.5H507.5V570H512.5V565H515V560H517.5V557.5Z" fill="#B5B5B5"/>
<path d="M320 777.5H325V780H322.5V782.5H320V785H325V787.5H330V790H327.5V795H330V792.5H332.5V790H337.5V792.5H340V790H342.5V797.5H347.5V795H350V800H347.5V802.5H345V807.5H347.5V805H350V802.5H352.5V810H355V807.5H357.5V802.5H362.5V810H365V807.5H370V815H367.5V820H365V815H362.5V817.5H355V812.5H352.5V815H350V820H342.5V817.5H340V820H337.5V812.5H340V807.5H337.5V810H332.5V805H327.5V797.5H325V792.5H320V790H317.5V792.5H312.5V782.5H317.5V780H320V777.5Z" fill="#47464C"/>
<path d="M410 480H412.5V482.5H420V485H422.5V482.5H425V485H427.5V482.5H437.5V485H440V490H442.5V492.5H440V495H430V490H427.5V487.5H425V492.5H422.5V487.5H420V492.5H417.5V490H415V492.5H410V495H412.5V497.5H407.5V492.5H405V495H400V497.5H397.5V495H395V500H392.5V497.5H390V500H385V502.5H382.5V500H380V502.5H375V505H372.5V507.5H365V510H360V507.5H362.5V505H365V500H367.5V495H370V492.5H380V490H390V487.5H392.5V490H395V487.5H400V485H402.5V482.5H410V480Z" fill="#A5A1A1"/>
<path d="M715 582.5H722.5V585H725V590H732.5V597.5H737.5V595H745V597.5H750V605H755V602.5H762.5V607.5H765V617.5H780V632.5H790V630H797.5V632.5H795V635H792.5V637.5H795V640H800V642.5H802.5V645H797.5V652.5H800V650H805V647.5H807.5V640H810V652.5H805V657.5H792.5V652.5H795V647.5H792.5V645H790V642.5H787.5V640H790V635H782.5V637.5H775V627.5H772.5V620H767.5V622.5H760V612.5H757.5V607.5H747.5V600H732.5V605H727.5V600H730V592.5H720V585H715V582.5Z" fill="#A7B5A7"/>
<path d="M462.5 657.5H465V660H470V662.5H467.5V665H465V670H462.5V672.5H460V677.5H457.5V682.5H455V695H452.5V700H455V712.5H452.5V720H450V722.5H452.5V725H450V730H447.5V725H445V722.5H442.5V717.5H440V710H442.5V697.5H440V692.5H437.5V690H440V687.5H442.5V685H445V682.5H447.5V677.5H450V675H452.5V670H455V665H457.5V662.5H460V660H462.5V657.5Z" fill="#7B7A7C"/>
<path d="M387.5 785H390V790H392.5V787.5H395V792.5H400V790H402.5V792.5H405V795H412.5V800H410V805H412.5V807.5H410V810H407.5V815H405V820H402.5V822.5H400V812.5H395V815H392.5V817.5H390V807.5H387.5V810H385V815H382.5V817.5H380V807.5H375V802.5H377.5V797.5H382.5V792.5H385V787.5H387.5V785Z" fill="#B5ABAD"/>
<path d="M420 625H422.5V630H417.5V635H415V637.5H405V640H402.5V647.5H400V650H395V652.5H390V657.5H387.5V660H385V662.5H382.5V667.5H380V672.5H377.5V675H375V680H372.5V685H367.5V687.5H365V690H362.5V687.5H360V690H355V692.5H352.5V695H347.5V697.5H345V700H342.5V702.5H340V700H332.5V697.5H337.5V695H345V692.5H347.5V690H352.5V687.5H357.5V682.5H355V680H360V677.5H362.5V672.5H365V670H367.5V667.5H370V670H372.5V667.5H375V662.5H377.5V660H380V657.5H382.5V652.5H387.5V650H390V647.5H392.5V645H395V640H400V637.5H402.5V635H405V632.5H410V630H415V627.5H420V625Z" fill="#4C4E4E"/>
<path d="M365 317.5H370V322.5H372.5V325H377.5V327.5H380V330H382.5V332.5H385V335H387.5V337.5H390V340H392.5V342.5H395V345H402.5V342.5H412.5V340H422.5V337.5H425V340H427.5V337.5H432.5V335H442.5V332.5H445V330H472.5V332.5H475V335H470V337.5H465V335H462.5V337.5H452.5V335H450V337.5H447.5V340H430V342.5H427.5V345H417.5V347.5H407.5V350H397.5V352.5H390V347.5H385V345H382.5V335H380V332.5H375V330H370V325H367.5V322.5H365V317.5Z" fill="#A3A2A5"/>
<path d="M560 490H565V492.5H567.5V495H570V490H572.5V492.5H575V495H580V492.5H582.5V495H587.5V500H590V497.5H595V495H597.5V492.5H600V495H602.5V497.5H605V500H607.5V502.5H610V505H612.5V507.5H615V505H620V507.5H625V510H632.5V515H637.5V517.5H645V522.5H650V525H645V527.5H640V522.5H637.5V525H632.5V520H627.5V517.5H625V515H622.5V517.5H617.5V515H612.5V517.5H610V512.5H607.5V507.5H602.5V505H597.5V507.5H595V505H590V502.5H582.5V500H577.5V497.5H575V500H570V497.5H567.5V500H562.5V497.5H560V495H562.5V492.5H560V490Z" fill="#545158"/>
<path d="M457.5 735H460V740H457.5V747.5H460V745H465V747.5H467.5V750H470V752.5H472.5V757.5H470V762.5H475V760H477.5V757.5H482.5V762.5H487.5V760H490V755H495V752.5H497.5V757.5H495V762.5H500V760H505V757.5H507.5V762.5H502.5V765H500V775H497.5V777.5H490V780H482.5V777.5H480V767.5H477.5V770H472.5V765H470V767.5H465V762.5H467.5V760H462.5V755H465V752.5H462.5V750H460V752.5H457.5V755H452.5V750H455V737.5H457.5V735Z" fill="#B8B8B8"/>
<path d="M385 557.5H387.5V562.5H390V567.5H392.5V570H395V575H397.5V580H400V595H397.5V605H395V610H390V607.5H387.5V610H385V612.5H382.5V610H377.5V605H375V607.5H372.5V605H367.5V607.5H365V602.5H362.5V600H357.5V595H355V592.5H360V595H362.5V592.5H370V600H375V602.5H377.5V600H380V602.5H382.5V600H385V595H387.5V587.5H390V585H392.5V582.5H390V570H385V565H382.5V562.5H385V557.5Z" fill="#ACABA8"/>
<path d="M385 680H387.5V685H385V687.5H382.5V690H380V692.5H375V695H365V697.5H362.5V700H360V702.5H355V705H352.5V707.5H350V710H345V712.5H342.5V715H340V717.5H337.5V720H335V717.5H330V715H325V712.5H320V707.5H322.5V710H325V702.5H332.5V700H340V702.5H342.5V700H345V697.5H347.5V695H352.5V692.5H355V690H360V687.5H362.5V690H375V687.5H377.5V685H382.5V682.5H385V680Z" fill="#9B9694"/>
<path d="M420 487.5H422.5V492.5H425V487.5H427.5V490H430V495H437.5V500H435V505H432.5V502.5H430V507.5H432.5V512.5H435V520H432.5V515H430V510H427.5V512.5H425V510H422.5V507.5H425V505H422.5V502.5H425V500H417.5V502.5H415V500H402.5V502.5H392.5V505H390V510H387.5V507.5H382.5V510H377.5V512.5H375V510H372.5V512.5H370V515H367.5V512.5H365V515H357.5V512.5H360V510H365V507.5H372.5V505H375V502.5H380V500H382.5V502.5H385V500H390V497.5H392.5V500H395V495H397.5V497.5H400V495H405V492.5H407.5V497.5H412.5V495H410V492.5H415V490H417.5V492.5H420V487.5Z" fill="#4B4A4C"/>
<path d="M347.5 770H355V772.5H357.5V770H360V777.5H355V780H370V775H372.5V780H375V777.5H377.5V782.5H382.5V785H380V787.5H382.5V790H380V792.5H377.5V795H375V797.5H370V795H372.5V792.5H375V790H370V792.5H367.5V795H365V790H360V792.5H357.5V795H355V790H350V795H347.5V797.5H342.5V790H340V787.5H342.5V785H345V782.5H340V780H337.5V772.5H340V777.5H342.5V775H345V780H347.5V777.5H350V775H347.5V770Z" fill="#C3B5B5"/>
<path d="M312.5 707.5H317.5V712.5H320V715H317.5V717.5H315V720H312.5V722.5H310V717.5H307.5V720H305V722.5H302.5V727.5H300V730H295V735H292.5V740H295V755H292.5V752.5H290V747.5H287.5V745H285V747.5H282.5V745H277.5V740H275V727.5H277.5V725H280V722.5H290V725H295V722.5H297.5V720H300V717.5H302.5V715H305V712.5H307.5V710H312.5V707.5Z" fill="#7E7B80"/>
<path d="M240 337.5H242.5V352.5H237.5V375H240V380H242.5V385H245V392.5H250V397.5H252.5V400H255V407.5H257.5V417.5H260V422.5H262.5V430H280V432.5H272.5V435H270V437.5H267.5V440H262.5V435H265V432.5H260V427.5H255V417.5H250V410H247.5V400H245V395H242.5V392.5H240V390H235V375H232.5V357.5H235V355H232.5V350H235V345H240V337.5Z" fill="#9E9C9C"/>
<path d="M445 545H450V547.5H447.5V550H450V552.5H447.5V557.5H442.5V560H445V565H442.5V562.5H440V567.5H437.5V572.5H440V577.5H437.5V585H435V587.5H432.5V590H430V595H432.5V592.5H435V597.5H432.5V600H435V607.5H437.5V610H435V615H437.5V617.5H435V622.5H432.5V627.5H430V625H427.5V632.5H425V635H417.5V630H422.5V625H425V617.5H427.5V612.5H430V607.5H427.5V602.5H425V600H427.5V592.5H425V590H427.5V587.5H430V582.5H427.5V580H430V577.5H427.5V575H432.5V570H435V565H432.5V560H435V562.5H437.5V557.5H440V552.5H442.5V547.5H445V545Z" fill="#7D7B7C"/>
<path d="M510 335H515V345H512.5V355H510V360H507.5V377.5H510V387.5H512.5V397.5H515V417.5H512.5V420H510V432.5H505V435H502.5V445H505V457.5H502.5V455H500V452.5H502.5V450H500V432.5H502.5V427.5H505V425H502.5V422.5H505V420H507.5V417.5H510V410H507.5V407.5H510V405H512.5V402.5H510V392.5H507.5V385H505V382.5H502.5V377.5H500V370H502.5V350H505V347.5H507.5V345H510V335Z" fill="#505050"/>
<path d="M457.5 797.5H460V802.5H457.5V805H455V810H452.5V820H455V817.5H457.5V812.5H460V810H462.5V805H465V800H470V802.5H472.5V807.5H470V810H467.5V817.5H465V822.5H470V825H467.5V827.5H462.5V832.5H457.5V837.5H452.5V842.5H447.5V845H445V847.5H442.5V840H447.5V837.5H450V835H452.5V832.5H455V830H457.5V825H460V820H457.5V822.5H452.5V827.5H450V832.5H445V835H440V840H435V845H430V837.5H435V832.5H440V830H445V825H447.5V820H450V815H445V812.5H447.5V807.5H450V805H452.5V800H457.5V797.5Z" fill="#8C8C8C"/>
<path d="M492.5 670H495V680H497.5V677.5H500V672.5H502.5V670H505V677.5H510V675H512.5V670H515V677.5H512.5V687.5H510V690H507.5V695H502.5V697.5H500V692.5H495V695H490V697.5H487.5V692.5H482.5V695H480V692.5H477.5V685H475V680H477.5V677.5H480V675H482.5V682.5H487.5V675H490V672.5H492.5V670Z" fill="#F4F4F3"/>
<path d="M545 495H547.5V500H545V507.5H542.5V510H540V512.5H542.5V517.5H545V522.5H547.5V530H550V535H547.5V540H550V537.5H552.5V542.5H555V547.5H557.5V550H555V555H550V557.5H545V560H547.5V562.5H550V567.5H547.5V565H545V570H547.5V575H542.5V577.5H545V580H542.5V582.5H540V590H535V587.5H537.5V577.5H535V575H537.5V572.5H540V570H537.5V565H540V557.5H542.5V552.5H540V550H542.5V547.5H545V545H542.5V540H545V535H542.5V532.5H545V525H542.5V520H537.5V502.5H540V500H542.5V497.5H545V495Z" fill="#BDBCBC"/>
<path d="M437.5 497.5H440V502.5H442.5V507.5H445V510H442.5V512.5H445V515H442.5V525H445V530H442.5V535H445V532.5H447.5V537.5H445V547.5H442.5V552.5H440V557.5H437.5V562.5H435V560H432.5V565H435V570H432.5V575H427.5V572.5H425V567.5H427.5V562.5H430V557.5H432.5V555H435V550H440V542.5H437.5V540H440V535H437.5V537.5H435V532.5H432.5V527.5H430V525H427.5V522.5H432.5V520H435V512.5H432.5V507.5H430V502.5H432.5V505H435V500H437.5V497.5Z" fill="#777576"/>
<path d="M600 490H605V492.5H610V497.5H612.5V500H617.5V497.5H620V500H625V502.5H630V507.5H635V510H637.5V512.5H640V515H647.5V520H652.5V527.5H657.5V525H662.5V530H667.5V537.5H677.5V542.5H682.5V547.5H690V550H687.5V552.5H685V550H680V545H670V542.5H662.5V537.5H660V540H655V532.5H650V522.5H645V517.5H637.5V515H632.5V510H625V507.5H620V505H615V507.5H612.5V505H610V502.5H607.5V500H605V497.5H602.5V495H600V490Z" fill="#90918E"/>
<path d="M232.5 480H235V485H230V487.5H227.5V490H225V492.5H222.5V495H217.5V500H215V502.5H207.5V505H205V507.5H200V510H197.5V517.5H195V525H192.5V527.5H190V545H187.5V550H185V555H182.5V557.5H180V560H177.5V562.5H167.5V570H165V572.5H162.5V575H160V577.5H157.5V572.5H160V562.5H165V560H167.5V557.5H177.5V555H180V547.5H182.5V545H185V537.5H187.5V532.5H182.5V527.5H185V525H187.5V517.5H192.5V515H195V507.5H197.5V502.5H205V500H207.5V497.5H210V492.5H217.5V490H222.5V487.5H225V485H227.5V482.5H232.5V480Z" fill="#423E3F"/>
<path d="M340 370H342.5V375H340V387.5H337.5V390H332.5V395H322.5V397.5H320V400H317.5V402.5H312.5V405H310V407.5H307.5V410H302.5V420H300V422.5H297.5V425H290V427.5H287.5V430H280V427.5H282.5V422.5H292.5V415H295V412.5H297.5V410H300V405H302.5V402.5H305V400H307.5V397.5H312.5V395H315V390H317.5V387.5H322.5V385H325V382.5H332.5V377.5H335V375H337.5V372.5H340V370Z" fill="#A4A8A0"/>
<path d="M475 357.5H480V360H477.5V377.5H480V387.5H482.5V390H485V400H487.5V415H485V422.5H480V432.5H475V425H477.5V420H475V415H477.5V412.5H480V410H477.5V402.5H475V400H477.5V397.5H475V395H472.5V390H475V385H472.5V382.5H475V377.5H472.5V375H470V365H472.5V360H475V357.5Z" fill="#646464"/>
<path d="M415 635H422.5V637.5H417.5V640H415V642.5H410V647.5H407.5V655H405V657.5H402.5V662.5H397.5V665H395V662.5H390V667.5H387.5V672.5H385V675H382.5V680H380V682.5H377.5V687.5H375V690H365V687.5H367.5V685H372.5V680H375V675H377.5V672.5H380V667.5H382.5V662.5H385V660H387.5V657.5H390V652.5H395V650H400V647.5H402.5V640H405V637.5H415V635Z" fill="#968E8F"/>
<path d="M515 480H520V482.5H517.5V487.5H515V492.5H512.5V497.5H510V502.5H507.5V507.5H510V510H512.5V517.5H515V520H517.5V527.5H520V530H525V537.5H522.5V540H525V545H522.5V547.5H520V550H517.5V547.5H515V535H512.5V530H507.5V527.5H505V520H502.5V502.5H505V500H507.5V495H510V490H512.5V482.5H515V480Z" fill="#919191"/>
<path d="M480 647.5H482.5V650H490V655H492.5V657.5H490V660H487.5V662.5H485V657.5H480V660H477.5V662.5H472.5V660H465V657.5H462.5V660H460V662.5H457.5V665H455V670H452.5V675H450V677.5H447.5V682.5H445V685H442.5V687.5H440V685H437.5V680H440V675H442.5V672.5H445V670H447.5V665H450V660H452.5V657.5H455V652.5H457.5V650H462.5V652.5H460V655H465V652.5H467.5V650H472.5V652.5H477.5V650H480V647.5Z" fill="#F4F4F3"/>
<path d="M422.5 810H425V817.5H422.5V822.5H420V827.5H425V825H427.5V822.5H430V817.5H432.5V812.5H435V810H437.5V820H435V822.5H432.5V825H430V827.5H427.5V832.5H425V835H422.5V837.5H427.5V835H432.5V830H435V827.5H437.5V825H440V822.5H442.5V817.5H445V815H450V820H447.5V825H445V830H440V832.5H435V837.5H430V845H427.5V847.5H425V842.5H427.5V840H422.5V842.5H417.5V835H415V837.5H412.5V835H410V832.5H412.5V830H415V825H412.5V822.5H415V820H417.5V815H420V812.5H422.5V810Z" fill="#3F3F3F"/>
<path d="M412.5 805H417.5V807.5H415V812.5H412.5V817.5H410V822.5H407.5V832.5H402.5V835H400V830H397.5V832.5H392.5V827.5H395V822.5H397.5V817.5H395V820H392.5V822.5H390V825H382.5V820H380V822.5H377.5V825H375V822.5H372.5V820H370V817.5H372.5V812.5H375V810H377.5V807.5H380V817.5H382.5V815H385V810H387.5V807.5H390V817.5H392.5V815H395V812.5H400V822.5H402.5V820H405V815H407.5V810H410V807.5H412.5V805Z" fill="#4B4C4E"/>
<path d="M605 557.5H610V562.5H615V560H620V562.5H625V567.5H627.5V565H632.5V567.5H630V572.5H627.5V575H622.5V572.5H620V575H615V572.5H617.5V567.5H612.5V570H610V567.5H605V570H600V575H595V577.5H590V582.5H595V585H592.5V587.5H590V590H592.5V592.5H587.5V590H582.5V585H585V582.5H582.5V577.5H585V572.5H590V570H595V565H600V562.5H602.5V560H605V557.5Z" fill="#AEA9AA"/>
<path d="M462.5 727.5H465V735H467.5V732.5H472.5V737.5H475V742.5H480V750H477.5V755H480V752.5H482.5V750H485V747.5H487.5V745H490V752.5H495V755H490V760H487.5V762.5H482.5V757.5H477.5V760H475V762.5H470V757.5H472.5V752.5H470V750H467.5V747.5H465V745H460V747.5H457.5V740H460V735H457.5V732.5H460V730H462.5V727.5Z" fill="#727171"/>
<path d="M337.5 297.5H340V300H345V302.5H347.5V305H352.5V307.5H360V310H365V312.5H375V320H377.5V322.5H380V325H382.5V327.5H390V330H395V332.5H397.5V335H400V337.5H402.5V340H405V337.5H410V342.5H402.5V345H395V342.5H392.5V340H390V337.5H387.5V335H385V332.5H382.5V330H380V327.5H377.5V325H372.5V322.5H370V317.5H360V315H352.5V312.5H350V307.5H345V305H340V302.5H337.5V297.5Z" fill="#5D5C5E"/>
<path d="M382.5 787.5H385V792.5H382.5V797.5H377.5V802.5H375V807.5H377.5V810H375V812.5H372.5V817.5H370V820H367.5V815H370V807.5H365V810H362.5V802.5H357.5V807.5H355V810H352.5V802.5H350V805H347.5V807.5H345V802.5H347.5V800H350V790H355V795H357.5V792.5H360V790H365V795H367.5V792.5H370V790H375V792.5H372.5V795H370V797.5H375V795H377.5V792.5H380V790H382.5V787.5Z" fill="#988E90"/>
<path d="M305 765H307.5V767.5H312.5V770H317.5V775H320V772.5H322.5V770H325V767.5H327.5V770H332.5V775H335V780H340V782.5H345V785H342.5V787.5H340V792.5H337.5V790H332.5V792.5H330V795H327.5V790H330V787.5H325V785H320V782.5H322.5V780H325V777.5H320V780H317.5V782.5H312.5V787.5H310V782.5H307.5V770H305V765Z" fill="#8F898B"/>
<path d="M207.5 502.5H212.5V505H210V507.5H207.5V512.5H205V515H202.5V520H200V527.5H202.5V530H200V532.5H197.5V542.5H195V550H192.5V552.5H190V555H187.5V557.5H185V560H182.5V567.5H172.5V570H167.5V562.5H177.5V560H180V557.5H182.5V555H185V550H187.5V545H190V527.5H192.5V525H195V517.5H197.5V510H200V507.5H205V505H207.5V502.5Z" fill="#A9A29B"/>
<path d="M627.5 792.5H632.5V800H630V805H632.5V807.5H637.5V802.5H642.5V805H640V812.5H637.5V810H635V815H632.5V820H627.5V825H622.5V822.5H620V817.5H625V815H622.5V812.5H620V810H625V802.5H620V807.5H615V812.5H610V815H605V820H602.5V825H597.5V830H592.5V835H587.5V837.5H585V832.5H590V827.5H595V822.5H600V817.5H602.5V812.5H607.5V810H612.5V805H617.5V800H622.5V797.5H627.5V792.5Z" fill="#3D3C40"/>
<path d="M437.5 710H440V717.5H442.5V722.5H445V725H447.5V730H450V725H452.5V727.5H455V725H457.5V730H455V735H457.5V737.5H455V742.5H452.5V747.5H450V750H447.5V752.5H445V747.5H447.5V742.5H450V737.5H447.5V740H445V742.5H442.5V735H440V732.5H435V737.5H430V732.5H425V730H427.5V727.5H430V725H432.5V720H435V712.5H437.5V710Z" fill="#9D9B9A"/>
<path d="M245 307.5H265V310H275V312.5H285V315H292.5V317.5H297.5V320H300V322.5H305V325H307.5V327.5H302.5V325H297.5V322.5H295V320H285V317.5H270V315H262.5V310H255V312.5H250V337.5H247.5V345H245V347.5H247.5V352.5H242.5V337.5H245V307.5Z" fill="#4D4658"/>
<path d="M515 802.5H520V807.5H517.5V812.5H515V815H517.5V820H515V825H517.5V822.5H522.5V817.5H525V812.5H527.5V807.5H530V805H532.5V810H530V815H527.5V820H525V825H520V827.5H515V832.5H510V837.5H505V842.5H500V845H497.5V847.5H492.5V850H487.5V845H492.5V842.5H495V840H500V835H505V827.5H510V822.5H512.5V820H510V817.5H507.5V822.5H505V825H502.5V820H505V815H507.5V810H510V807.5H512.5V805H515V802.5Z" fill="#919191"/>
<path d="M425 790H427.5V797.5H430V795H435V800H432.5V805H430V810H427.5V815H430V812.5H432.5V817.5H430V822.5H427.5V825H425V827.5H420V822.5H422.5V817.5H425V810H422.5V812.5H420V815H417.5V820H415V822.5H412.5V827.5H407.5V822.5H410V817.5H412.5V812.5H415V807.5H417.5V805H412.5V802.5H415V800H417.5V797.5H420V795H422.5V792.5H425V790Z" fill="#AFADAE"/>
<path d="M612.5 672.5H617.5V682.5H620V680H625V682.5H627.5V687.5H625V692.5H630V690H632.5V687.5H640V692.5H637.5V695H632.5V700H637.5V702.5H632.5V705H625V700H622.5V697.5H620V692.5H617.5V690H612.5V692.5H607.5V687.5H610V682.5H607.5V680H605V677.5H607.5V675H612.5V672.5Z" fill="#BBB2B6"/>
<path d="M507.5 445H512.5V447.5H515V452.5H517.5V460H520V462.5H522.5V470H525V482.5H522.5V495H520V497.5H522.5V500H517.5V502.5H515V515H512.5V510H510V507.5H507.5V502.5H510V497.5H512.5V492.5H515V487.5H517.5V482.5H520V480H517.5V470H515V465H512.5V452.5H510V447.5H507.5V445Z" fill="#BBBBBB"/>
<path d="M275 310H287.5V312.5H297.5V315H300V317.5H302.5V320H307.5V322.5H310V325H317.5V327.5H320V330H325V335H327.5V337.5H335V340H337.5V342.5H340V345H342.5V350H345V352.5H347.5V355H350V357.5H347.5V370H342.5V360H340V357.5H337.5V350H335V345H332.5V340H325V337.5H320V335H317.5V332.5H315V327.5H307.5V325H305V322.5H300V320H297.5V317.5H292.5V315H285V312.5H275V310Z" fill="#7B7C79"/>
<path d="M237.5 267.5H267.5V270H275V272.5H290V275H302.5V277.5H307.5V280H310V282.5H315V287.5H325V290H327.5V292.5H330V295H322.5V290H310V287.5H305V282.5H300V280H297.5V277.5H287.5V280H270V275H265V272.5H262.5V270H237.5V267.5Z" fill="#919190"/>
<path d="M292.5 757.5H297.5V760H295V765H300V767.5H302.5V765H305V770H307.5V782.5H310V787.5H307.5V785H305V787.5H302.5V790H300V785H297.5V780H292.5V777.5H290V780H287.5V782.5H282.5V772.5H285V770H287.5V762.5H290V760H292.5V757.5Z" fill="#595D5B"/>
<path d="M477.5 807.5H482.5V812.5H480V817.5H477.5V822.5H475V827.5H472.5V840H465V845H460V847.5H457.5V850H452.5V852.5H447.5V847.5H445V845H447.5V842.5H452.5V837.5H457.5V832.5H462.5V827.5H467.5V825H470V820H472.5V815H475V810H477.5V807.5Z" fill="#4D4D4D"/>
<path d="M500 740H505V750H502.5V752.5H500V757.5H502.5V755H507.5V750H510V745H512.5V742.5H522.5V747.5H525V752.5H522.5V755H517.5V760H515V762.5H512.5V765H510V767.5H502.5V772.5H500V765H502.5V762.5H507.5V757.5H505V760H500V762.5H495V757.5H497.5V752.5H495V750H497.5V747.5H500V740Z" fill="#6D6D6D"/>
<path d="M492.5 810H497.5V820H495V827.5H500V830H495V835H490V837.5H485V842.5H480V845H477.5V847.5H472.5V852.5H467.5V845H472.5V842.5H475V840H480V835H482.5V832.5H477.5V835H475V830H480V825H482.5V822.5H487.5V817.5H490V812.5H492.5V810Z" fill="#717171"/>
<path d="M507.5 360H510V362.5H512.5V385H515V387.5H517.5V397.5H520V400H522.5V402.5H520V407.5H522.5V417.5H520V420H517.5V425H515V432.5H512.5V442.5H510V420H512.5V417.5H515V397.5H512.5V387.5H510V377.5H507.5V360Z" fill="#B1B1B1"/>
<path d="M350 515H357.5V517.5H355V520H360V522.5H357.5V525H355V527.5H352.5V530H347.5V532.5H345V530H342.5V532.5H340V535H337.5V537.5H335V535H332.5V537.5H330V540H327.5V542.5H320V540H322.5V537.5H325V535H327.5V530H330V527.5H332.5V525H335V522.5H337.5V520H345V517.5H350V515Z" fill="#4E5350"/>
<path d="M342.5 510H360V512.5H357.5V515H350V517.5H345V520H337.5V522.5H335V525H332.5V527.5H330V530H327.5V535H325V537.5H322.5V540H320V545H312.5V547.5H310V550H307.5V545H310V542.5H312.5V540H315V532.5H317.5V530H320V527.5H322.5V525H325V522.5H330V520H332.5V517.5H337.5V515H340V512.5H342.5V510Z" fill="#ADAEB2"/>
<path d="M505 432.5H510V445H507.5V447.5H510V452.5H512.5V465H515V470H517.5V480H515V482.5H512.5V490H507.5V487.5H505V477.5H507.5V472.5H510V467.5H507.5V460H505V445H502.5V435H505V432.5Z" fill="#646464"/>
</g>
<defs>
<clipPath id="clip0_44_226">
<rect width="1000" height="1000" fill="white"/>
</clipPath>
</defs>
</svg>
