<svg xmlns="http://www.w3.org/2000/svg" width="340" height="408" viewBox="0 0 170.606 204.779"><path fill="#111" d="M116.12 55.625l14.342-16.987c9.68-9.077 21.07-16.77 34.133-19.836 18.084 19.83-9.896 99.655-15.115 102.272-7.654 3.837-4.432 15.788-7.807 23.505l-7.383 13.496-9.12 16.547-7.604 9.798-15.002 10.24-16.313 3.28-8.917 2.84-10.44 3.056c-12.755 5.197-22.59-12.432-31.132-19.762l.87-2.613-3.7.223-5.657-.428c-8.914-7.146-11.305-21.487-15.48-31.965l-1.105-14.142-1.323-15.663-.015-13.054 1.29-14.795-2.185-8.7s-4.304-5-4.903-7.065c-5.17-17.84-6.318-59.665 7.86-73.872 12.376-12.404 45.29 36.708 48.348 44.33l15.23-2.19 15.446 1.506 11.1 3.687 14.584 6.295z"/><path fill="#282623" d="M30.926 139.694c8.526 18.286 11.55 25.51 33.07 25.35 22.067-.166 28.49 6.978 48.103-7.812-5.737 12.417-33.933 44.045-48.76 43.264-16.833-.887-11.87-16.787-18.13-26.034-7.896-11.67-11.544-20.92-14.284-34.768z"/><path fill="#FFF2E6" d="M64.823 45.274c12.2 9.814 11.583 19.273 9.875 33.564 1.65 15.77-8.428 30.648-20.89 43.808L43.102 133.59c-9.552 9.72-10.298 27.533 5.906 30.234l10.444 1.295 10.555-.123 10.55 2.057 6.967 3.04c18.135.946 13.41-32.887 5.176-41.78-8.275-13.335-8.14-16.952-6.4-32.573l1.777-16.808c2.666-15.64 12.174-19.58 25.646-24.83-15.583-8.738-28.845-14.654-48.903-8.828z"/><ellipse transform="matrix(.949 .315 -.315 .949 34.733 -10.16)" cx="48.78" cy="102.308" rx="10.664" ry="10.836"/><ellipse transform="matrix(.949 .315 -.315 .949 42.041 -29.266)" cx="111.506" cy="115.349" rx="10.319" ry="10.663"/><path d="M63.55 130.958c12.673-2.926 37.083 6.11 22.542 21.62-15.656 16.706-39.832-6.035-22.543-21.62z"/><path fill="#fff" d="M68.67 137.37c-.54 1.62-3.523 3.542-5.328 2.94-1.803-.598-1.086-3.27-.548-4.893.54-1.622 3.09-2.236 4.894-1.637 1.8.6 1.52 1.967.98 3.59z"/><ellipse transform="matrix(.949 .315 -.315 .949 34.517 -10.964)" fill="#fff" cx="51.144" cy="101.192" rx="2.58" ry="1.805"/><path fill="#fff" d="M112.047 113.716c-.3.902-1.203 1.412-2.826.873s-2.042-1.49-1.743-2.393c.3-.9 1.205-1.41 2.828-.872 1.623.54 2.043 1.49 1.742 2.39z"/><path fill="#EF4136" d="M53.362 163.82c7.508.004 28.168-2.84 30.91 6.246 3.244 10.745-.582 19.346-9.273 26.42-20.775 16.918-39.08-15.814-21.638-32.666z"/></svg>
