<?xml version="1.0" encoding="utf-8"?>
<!-- Generator: Adobe Illustrator 16.0.3, SVG Export Plug-In . SVG Version: 6.00 Build 0)  -->
<!DOCTYPE svg PUBLIC "-//W3C//DTD SVG 1.1//EN" "http://www.w3.org/Graphics/SVG/1.1/DTD/svg11.dtd">
<svg version="1.1" id="Layer_1" xmlns="http://www.w3.org/2000/svg" xmlns:xlink="http://www.w3.org/1999/xlink" x="0px" y="0px"
	 width="170.606px" height="204.779px" viewBox="0 0 170.606 204.779" enable-background="new 0 0 170.606 204.779"
	 xml:space="preserve">
<path fill="#111111" d="M116.12,55.625l14.342-16.987c9.68-9.077,21.07-16.771,34.133-19.836
	c18.084,19.831-9.896,99.655-15.115,102.272c-7.654,3.837-4.432,15.788-7.807,23.505l-7.383,13.497l-9.119,16.547l-7.605,9.798
	l-15.002,10.239l-16.313,3.281l-8.918,2.839l-10.439,3.056c-12.756,5.197-22.592-12.432-31.133-19.762l0.868-2.613l-3.698,0.222
	l-5.658-0.428c-8.914-7.146-11.305-21.487-15.481-31.965l-1.104-14.142l-1.323-15.663L9.35,106.431l1.29-14.796l-2.185-8.699
	c0,0-4.304-5.002-4.903-7.066c-5.17-17.839-6.318-59.665,7.861-73.872C23.788-10.406,56.702,38.706,59.76,46.329l15.229-2.191
	l15.447,1.506l11.1,3.687L116.12,55.625z"/>
<path fill="#282623" d="M30.926,139.694c8.526,18.286,11.55,25.511,33.071,25.351c22.066-0.167,28.488,6.977,48.102-7.813
	c-5.736,12.417-33.932,44.045-48.76,43.264c-16.832-0.887-11.869-16.787-18.129-26.034
	C37.314,162.792,33.666,153.543,30.926,139.694z"/>
<path fill="#FFF2E6" d="M64.823,45.274c12.2,9.814,11.583,19.273,9.875,33.564c1.65,15.771-8.428,30.648-20.891,43.808
	L43.103,133.59c-9.552,9.721-10.298,27.533,5.906,30.234l10.445,1.295l10.555-0.122l10.552,2.057l6.966,3.039
	c18.135,0.947,13.41-32.886,5.176-41.78c-8.275-13.334-8.139-16.951-6.4-32.572l1.777-16.809
	c2.666-15.641,12.174-19.581,25.646-24.83C98.143,45.364,84.881,39.448,64.823,45.274z"/>
<ellipse transform="matrix(0.949 0.3152 -0.3152 0.949 34.7329 -10.1602)" cx="48.78" cy="102.308" rx="10.664" ry="10.836"/>
<ellipse transform="matrix(0.949 0.3152 -0.3152 0.949 42.0406 -29.2663)" cx="111.506" cy="115.349" rx="10.319" ry="10.663"/>
<path d="M63.549,130.958c12.674-2.926,37.084,6.11,22.543,21.621C70.436,169.284,46.26,146.543,63.549,130.958z"/>
<path fill="#FFFFFF" d="M68.669,137.37c-0.538,1.621-3.522,3.542-5.327,2.941c-1.803-0.599-1.086-3.271-0.548-4.894
	c0.539-1.622,3.089-2.236,4.894-1.637C69.489,134.379,69.208,135.747,68.669,137.37z"/>
<ellipse transform="matrix(0.949 0.3153 -0.3153 0.949 34.5168 -10.9645)" fill="#FFFFFF" cx="51.144" cy="101.192" rx="2.58" ry="1.805"/>
<path fill="#FFFFFF" d="M112.047,113.716c-0.299,0.902-1.203,1.412-2.826,0.873s-2.043-1.489-1.744-2.392
	c0.301-0.901,1.205-1.41,2.828-0.872C111.928,111.865,112.348,112.815,112.047,113.716z"/>
<path fill="#EF4136" d="M53.362,163.82c7.508,0.004,28.168-2.841,30.91,6.246c3.244,10.745-0.582,19.346-9.273,26.42
	C54.225,213.404,35.921,180.672,53.362,163.82z"/>
</svg>
